<svg xmlns="http://www.w3.org/2000/svg" viewBox="0 0 80 72" role="img" aria-label="Mãos e fita de conscientização">
  <!-- left hand -->
  <path d="M18 48c-4-8-2-18 6-24 4-3 10-4 14-2l4 8c-6-1-12 2-14 8-2 5 0 12 4 16l-10-6z" fill="#5BA3D9"/>
  <!-- right hand -->
  <path d="M62 48c4-8 2-18-6-24-4-3-10-4-14-2l-4 8c6-1 12 2 14 8 2 5 0 12-4 16l10-6z" fill="#F1C40F"/>
  <!-- ribbon -->
  <path d="M40 18c-8 8-10 16-6 24 2-6 8-10 12-8 4-8 0-14-6-16z" fill="none" stroke="#5BA3D9" stroke-width="5" stroke-linecap="round"/>
  <path d="M40 18c8 8 10 16 6 24-2-6-8-10-12-8" fill="none" stroke="#F1C40F" stroke-width="5" stroke-linecap="round"/>
  <path d="M34 42 L28 58 M46 42 L52 58" stroke="#5BA3D9" stroke-width="4" stroke-linecap="round"/>
  <path d="M46 42 L52 58" stroke="#F1C40F" stroke-width="4" stroke-linecap="round"/>
</svg>
